<?xml version="1.0" standalone="no"?>
<!DOCTYPE svg PUBLIC "-//W3C//DTD SVG 20010904//EN"
 "http://www.w3.org/TR/2001/REC-SVG-20010904/DTD/svg10.dtd">
<svg version="1.0" xmlns="http://www.w3.org/2000/svg"
 width="512.000000pt" height="512.000000pt" viewBox="0 0 512.000000 512.000000"
 preserveAspectRatio="xMidYMid meet">

<g transform="translate(0.000000,512.000000) scale(0.100000,-0.100000)"
fill="#000000" stroke="none">
<path d="M2370 5113 c-468 -44 -863 -180 -1220 -419 -385 -257 -682 -596 -886
-1009 -126 -258 -203 -511 -246 -810 -17 -118 -17 -512 0 -630 42 -295 120
-553 242 -800 137 -280 272 -468 494 -691 221 -220 412 -357 681 -489 188 -92
309 -137 500 -185 196 -49 343 -70 545 -77 580 -20 1143 158 1615 511 138 103
379 339 477 466 496 644 663 1434 468 2210 -59 235 -182 525 -306 720 -211
333 -537 653 -856 843 -413 246 -871 371 -1338 365 -74 0 -151 -3 -170 -5z
m406 -244 c677 -66 1280 -416 1681 -977 312 -437 465 -1010 412 -1548 -51
-529 -273 -1010 -642 -1391 -173 -179 -331 -301 -537 -417 -696 -390 -1537
-394 -2240 -10 -207 113 -343 215 -526 398 -229 230 -378 447 -497 728 -249
582 -247 1241 4 1825 121 283 287 521 518 745 329 320 718 525 1161 612 229
45 448 57 666 35z"/>
<path d="M1104 3956 c-27 -27 -34 -42 -34 -75 0 -100 36 -124 193 -129 114 -4
117 -5 123 -28 3 -13 106 -445 229 -960 216 -906 224 -938 254 -968 l31 -31
801 -3 c863 -3 844 -4 877 49 7 11 116 327 243 701 155 462 229 694 229 723 0
49 -24 86 -68 104 -20 8 -107 11 -296 9 l-268 -3 -29 -32 c-51 -58 -51 -108 0
-166 l29 -32 176 -3 175 -3 -187 -555 -187 -554 -676 0 -675 0 -128 538 c-70
295 -130 545 -132 554 -4 15 11 17 160 20 l166 3 32 33 c28 28 33 39 33 82 0
43 -5 54 -33 82 l-32 33 -194 3 -194 3 -42 177 c-93 393 -96 405 -130 435
l-30 27 -191 0 -191 0 -34 -34z"/>
<path d="M2721 3927 c-19 -7 -44 -25 -55 -40 -20 -28 -21 -41 -26 -500 l-5
-471 -97 92 c-75 69 -107 93 -135 98 -51 10 -102 -19 -127 -69 -34 -71 -21
-91 202 -303 108 -103 211 -195 227 -205 38 -24 71 -24 112 -1 42 23 403 368
426 406 37 62 -4 156 -74 171 -55 12 -85 -4 -188 -101 l-101 -96 0 469 c0 499
0 498 -50 534 -35 25 -69 30 -109 16z"/>
<path d="M1890 1468 c-196 -118 -112 -417 118 -418 130 0 225 95 225 225 0
133 -94 225 -231 225 -48 0 -67 -6 -112 -32z"/>
<path d="M3250 1468 c-122 -74 -147 -235 -52 -340 47 -52 102 -78 170 -78 129
0 226 96 226 225 0 132 -95 225 -232 225 -48 0 -67 -6 -112 -32z"/>
</g>
</svg>
