<?xml version="1.0" standalone="no"?>
<!DOCTYPE svg PUBLIC "-//W3C//DTD SVG 20010904//EN"
 "http://www.w3.org/TR/2001/REC-SVG-20010904/DTD/svg10.dtd">
<svg version="1.0" xmlns="http://www.w3.org/2000/svg"
 width="512.000000pt" height="512.000000pt" viewBox="0 0 512.000000 512.000000"
 preserveAspectRatio="xMidYMid meet">

<g transform="translate(0.000000,512.000000) scale(0.100000,-0.100000)"
fill="#000000" stroke="none">
<path d="M2035 4784 c-418 -188 -875 -247 -1297 -168 -175 33 -227 29 -289
-23 -41 -35 -57 -69 -74 -160 -182 -943 -91 -1854 256 -2544 303 -605 808
-1035 1427 -1214 125 -36 127 -36 147 32 89 319 289 568 592 737 1 1 -14 47
-33 103 -173 517 144 1067 678 1177 140 29 341 17 467 -28 24 -9 46 -15 47
-13 2 2 12 60 24 130 36 227 52 440 53 702 0 332 -20 551 -79 868 -30 158 -55
205 -127 238 -53 24 -98 24 -223 -1 -422 -82 -873 -29 -1293 151 -139 60 -167
61 -276 13z"/>
<path d="M3560 2494 c-14 -2 -52 -9 -85 -15 -33 -6 -102 -31 -154 -56 -167
-80 -288 -231 -336 -418 -87 -337 88 -668 412 -780 289 -100 606 -3 768 234
156 228 149 564 -16 784 -75 101 -224 196 -360 231 -60 15 -189 27 -229 20z"/>
<path d="M2880 1213 c-269 -159 -450 -447 -467 -744 l-6 -96 31 -34 30 -34
1139 -2 c891 -2 1143 0 1162 10 50 26 66 62 64 145 -7 211 -115 447 -280 608
-73 71 -206 164 -235 164 -11 0 -51 -29 -89 -63 -262 -239 -676 -296 -1007
-137 -100 48 -153 83 -231 155 -32 30 -60 55 -62 55 -2 0 -24 -12 -49 -27z"/>
</g>
</svg>
