<?xml version="1.0" standalone="no"?>
<!DOCTYPE svg PUBLIC "-//W3C//DTD SVG 20010904//EN"
 "http://www.w3.org/TR/2001/REC-SVG-20010904/DTD/svg10.dtd">
<svg version="1.0" xmlns="http://www.w3.org/2000/svg"
 width="512.000000pt" height="512.000000pt" viewBox="0 0 512.000000 512.000000"
 preserveAspectRatio="xMidYMid meet">

<g transform="translate(0.000000,512.000000) scale(0.100000,-0.100000)"
fill="#000000" stroke="none">
<path d="M2380 5033 c-878 -68 -1650 -588 -2039 -1373 -420 -849 -325 -1844
251 -2606 382 -507 978 -854 1633 -950 160 -24 514 -24 668 -1 284 43 517 116
762 237 497 246 879 628 1125 1125 121 245 194 478 237 762 23 154 23 508 -1
668 -121 824 -618 1518 -1346 1879 -409 203 -857 293 -1290 259z m433 -168
c303 -35 597 -126 843 -260 779 -425 1249 -1239 1221 -2115 -13 -397 -116
-758 -311 -1093 -353 -607 -937 -1009 -1641 -1129 -175 -30 -533 -32 -700 -5
-309 51 -579 146 -826 290 -619 361 -1017 947 -1136 1672 -25 153 -25 514 0
670 150 937 799 1663 1710 1910 90 24 298 61 387 68 117 9 338 6 453 -8z"/>
<path d="M1715 3545 c-450 -338 -823 -621 -827 -628 -16 -24 -8 -68 17 -92
l24 -25 255 0 256 0 2 -820 c3 -771 4 -820 21 -837 17 -17 76 -18 1080 -21
745 -2 1070 1 1088 9 15 5 31 22 38 35 8 18 11 253 11 829 l0 805 255 0 256 0
24 25 c30 29 33 74 8 103 -10 11 -380 291 -823 623 -577 433 -813 604 -835
606 -26 3 -137 -77 -850 -612z m1522 -72 l676 -508 -177 -5 c-172 -5 -178 -6
-197 -29 -18 -22 -19 -51 -19 -837 l0 -814 -280 0 -280 0 0 415 0 416 -25 24
-24 25 -351 0 -351 0 -24 -25 -25 -24 0 -416 0 -415 -280 0 -280 0 0 814 c0
786 -1 815 -19 837 -19 23 -25 24 -197 29 l-177 5 674 507 c371 279 675 507
677 507 1 1 307 -227 679 -506z m-437 -1833 l0 -360 -240 0 -240 0 0 360 0
360 240 0 240 0 0 -360z"/>
</g>
</svg>
